<mxfile host="app.diagrams.net" modified="2024-01-18T23:57:08.769Z" agent="Mozilla/5.0 (Windows NT 10.0; Win64; x64) AppleWebKit/537.36 (KHTML, like Gecko) Chrome/120.0.0.0 Safari/537.36" etag="gA2Zwvn6PLeKDBghW9tb" version="22.1.21" type="github">
  <diagram id="C5RBs43oDa-KdzZeNtuy" name="Page-1">
    <mxGraphModel dx="1434" dy="746" grid="1" gridSize="10" guides="1" tooltips="1" connect="1" arrows="1" fold="1" page="1" pageScale="1" pageWidth="827" pageHeight="1169" math="0" shadow="0">
      <root>
        <mxCell id="WIyWlLk6GJQsqaUBKTNV-0" />
        <mxCell id="WIyWlLk6GJQsqaUBKTNV-1" parent="WIyWlLk6GJQsqaUBKTNV-0" />
        <mxCell id="WIyWlLk6GJQsqaUBKTNV-2" value="" style="rounded=0;html=1;jettySize=auto;orthogonalLoop=1;fontSize=11;endArrow=block;endFill=0;endSize=8;strokeWidth=1;shadow=0;labelBackgroundColor=none;edgeStyle=orthogonalEdgeStyle;" parent="WIyWlLk6GJQsqaUBKTNV-1" source="WIyWlLk6GJQsqaUBKTNV-3" edge="1">
          <mxGeometry relative="1" as="geometry">
            <mxPoint x="370" y="170" as="targetPoint" />
          </mxGeometry>
        </mxCell>
        <mxCell id="WIyWlLk6GJQsqaUBKTNV-3" value="Start" style="rounded=1;whiteSpace=wrap;html=1;fontSize=12;glass=0;strokeWidth=1;shadow=0;" parent="WIyWlLk6GJQsqaUBKTNV-1" vertex="1">
          <mxGeometry x="310" y="80" width="120" height="40" as="geometry" />
        </mxCell>
        <mxCell id="wbJ-zIDXcwP3jqcFJ3KQ-0" value="" style="edgeStyle=orthogonalEdgeStyle;rounded=0;orthogonalLoop=1;jettySize=auto;html=1;" edge="1" parent="WIyWlLk6GJQsqaUBKTNV-1" source="WIyWlLk6GJQsqaUBKTNV-7" target="WIyWlLk6GJQsqaUBKTNV-12">
          <mxGeometry relative="1" as="geometry" />
        </mxCell>
        <mxCell id="WIyWlLk6GJQsqaUBKTNV-7" value="Generate Random Word" style="rounded=1;whiteSpace=wrap;html=1;fontSize=12;glass=0;strokeWidth=1;shadow=0;" parent="WIyWlLk6GJQsqaUBKTNV-1" vertex="1">
          <mxGeometry x="310" y="170" width="120" height="40" as="geometry" />
        </mxCell>
        <mxCell id="wbJ-zIDXcwP3jqcFJ3KQ-2" value="" style="edgeStyle=orthogonalEdgeStyle;rounded=0;orthogonalLoop=1;jettySize=auto;html=1;" edge="1" parent="WIyWlLk6GJQsqaUBKTNV-1" source="WIyWlLk6GJQsqaUBKTNV-12" target="wbJ-zIDXcwP3jqcFJ3KQ-1">
          <mxGeometry relative="1" as="geometry" />
        </mxCell>
        <mxCell id="WIyWlLk6GJQsqaUBKTNV-12" value="Generate as many blanks as letters in the word" style="rounded=1;whiteSpace=wrap;html=1;fontSize=12;glass=0;strokeWidth=1;shadow=0;" parent="WIyWlLk6GJQsqaUBKTNV-1" vertex="1">
          <mxGeometry x="300" y="250" width="140" height="60" as="geometry" />
        </mxCell>
        <mxCell id="wbJ-zIDXcwP3jqcFJ3KQ-4" value="" style="edgeStyle=orthogonalEdgeStyle;rounded=0;orthogonalLoop=1;jettySize=auto;html=1;" edge="1" parent="WIyWlLk6GJQsqaUBKTNV-1" source="wbJ-zIDXcwP3jqcFJ3KQ-1" target="wbJ-zIDXcwP3jqcFJ3KQ-3">
          <mxGeometry relative="1" as="geometry" />
        </mxCell>
        <mxCell id="wbJ-zIDXcwP3jqcFJ3KQ-1" value="Ask User to Guess a letter" style="whiteSpace=wrap;html=1;rounded=1;glass=0;strokeWidth=1;shadow=0;" vertex="1" parent="WIyWlLk6GJQsqaUBKTNV-1">
          <mxGeometry x="310" y="350" width="120" height="60" as="geometry" />
        </mxCell>
        <mxCell id="wbJ-zIDXcwP3jqcFJ3KQ-10" value="" style="edgeStyle=orthogonalEdgeStyle;rounded=0;orthogonalLoop=1;jettySize=auto;html=1;" edge="1" parent="WIyWlLk6GJQsqaUBKTNV-1" source="wbJ-zIDXcwP3jqcFJ3KQ-3" target="wbJ-zIDXcwP3jqcFJ3KQ-5">
          <mxGeometry relative="1" as="geometry" />
        </mxCell>
        <mxCell id="wbJ-zIDXcwP3jqcFJ3KQ-13" value="" style="edgeStyle=orthogonalEdgeStyle;rounded=0;orthogonalLoop=1;jettySize=auto;html=1;" edge="1" parent="WIyWlLk6GJQsqaUBKTNV-1" source="wbJ-zIDXcwP3jqcFJ3KQ-3" target="wbJ-zIDXcwP3jqcFJ3KQ-12">
          <mxGeometry relative="1" as="geometry" />
        </mxCell>
        <mxCell id="wbJ-zIDXcwP3jqcFJ3KQ-3" value="Is the guessed letter in the word" style="whiteSpace=wrap;html=1;rounded=1;glass=0;strokeWidth=1;shadow=0;" vertex="1" parent="WIyWlLk6GJQsqaUBKTNV-1">
          <mxGeometry x="310" y="440" width="120" height="60" as="geometry" />
        </mxCell>
        <mxCell id="wbJ-zIDXcwP3jqcFJ3KQ-24" value="" style="edgeStyle=orthogonalEdgeStyle;rounded=0;orthogonalLoop=1;jettySize=auto;html=1;" edge="1" parent="WIyWlLk6GJQsqaUBKTNV-1" source="wbJ-zIDXcwP3jqcFJ3KQ-5" target="wbJ-zIDXcwP3jqcFJ3KQ-23">
          <mxGeometry relative="1" as="geometry" />
        </mxCell>
        <mxCell id="wbJ-zIDXcwP3jqcFJ3KQ-5" value="Lose a life" style="whiteSpace=wrap;html=1;rounded=1;glass=0;strokeWidth=1;shadow=0;" vertex="1" parent="WIyWlLk6GJQsqaUBKTNV-1">
          <mxGeometry x="490" y="440" width="120" height="60" as="geometry" />
        </mxCell>
        <mxCell id="wbJ-zIDXcwP3jqcFJ3KQ-11" value="No" style="text;html=1;align=center;verticalAlign=middle;resizable=0;points=[];autosize=1;strokeColor=none;fillColor=none;" vertex="1" parent="WIyWlLk6GJQsqaUBKTNV-1">
          <mxGeometry x="440" y="440" width="40" height="30" as="geometry" />
        </mxCell>
        <mxCell id="wbJ-zIDXcwP3jqcFJ3KQ-16" value="" style="edgeStyle=orthogonalEdgeStyle;rounded=0;orthogonalLoop=1;jettySize=auto;html=1;" edge="1" parent="WIyWlLk6GJQsqaUBKTNV-1" source="wbJ-zIDXcwP3jqcFJ3KQ-12" target="wbJ-zIDXcwP3jqcFJ3KQ-15">
          <mxGeometry relative="1" as="geometry" />
        </mxCell>
        <mxCell id="wbJ-zIDXcwP3jqcFJ3KQ-12" value="Replace the blank(s) with the letter" style="whiteSpace=wrap;html=1;rounded=1;glass=0;strokeWidth=1;shadow=0;" vertex="1" parent="WIyWlLk6GJQsqaUBKTNV-1">
          <mxGeometry x="110" y="440" width="120" height="60" as="geometry" />
        </mxCell>
        <mxCell id="wbJ-zIDXcwP3jqcFJ3KQ-14" value="Yes" style="text;html=1;align=center;verticalAlign=middle;resizable=0;points=[];autosize=1;strokeColor=none;fillColor=none;" vertex="1" parent="WIyWlLk6GJQsqaUBKTNV-1">
          <mxGeometry x="250" y="440" width="40" height="30" as="geometry" />
        </mxCell>
        <mxCell id="wbJ-zIDXcwP3jqcFJ3KQ-20" style="edgeStyle=orthogonalEdgeStyle;rounded=0;orthogonalLoop=1;jettySize=auto;html=1;exitX=0;exitY=0.5;exitDx=0;exitDy=0;entryX=0;entryY=0.75;entryDx=0;entryDy=0;" edge="1" parent="WIyWlLk6GJQsqaUBKTNV-1" source="wbJ-zIDXcwP3jqcFJ3KQ-15" target="wbJ-zIDXcwP3jqcFJ3KQ-1">
          <mxGeometry relative="1" as="geometry">
            <mxPoint x="80" y="390" as="targetPoint" />
          </mxGeometry>
        </mxCell>
        <mxCell id="wbJ-zIDXcwP3jqcFJ3KQ-22" style="edgeStyle=orthogonalEdgeStyle;rounded=0;orthogonalLoop=1;jettySize=auto;html=1;exitX=0.5;exitY=1;exitDx=0;exitDy=0;" edge="1" parent="WIyWlLk6GJQsqaUBKTNV-1" source="wbJ-zIDXcwP3jqcFJ3KQ-15">
          <mxGeometry relative="1" as="geometry">
            <mxPoint x="360" y="650" as="targetPoint" />
          </mxGeometry>
        </mxCell>
        <mxCell id="wbJ-zIDXcwP3jqcFJ3KQ-15" value="All all blanks filled?" style="whiteSpace=wrap;html=1;rounded=1;glass=0;strokeWidth=1;shadow=0;" vertex="1" parent="WIyWlLk6GJQsqaUBKTNV-1">
          <mxGeometry x="110" y="550" width="120" height="60" as="geometry" />
        </mxCell>
        <mxCell id="wbJ-zIDXcwP3jqcFJ3KQ-21" value="No" style="text;html=1;align=center;verticalAlign=middle;resizable=0;points=[];autosize=1;strokeColor=none;fillColor=none;" vertex="1" parent="WIyWlLk6GJQsqaUBKTNV-1">
          <mxGeometry x="60" y="498" width="40" height="30" as="geometry" />
        </mxCell>
        <mxCell id="wbJ-zIDXcwP3jqcFJ3KQ-25" style="edgeStyle=orthogonalEdgeStyle;rounded=0;orthogonalLoop=1;jettySize=auto;html=1;exitX=1;exitY=0.5;exitDx=0;exitDy=0;entryX=1;entryY=0.5;entryDx=0;entryDy=0;" edge="1" parent="WIyWlLk6GJQsqaUBKTNV-1" source="wbJ-zIDXcwP3jqcFJ3KQ-23" target="wbJ-zIDXcwP3jqcFJ3KQ-1">
          <mxGeometry relative="1" as="geometry" />
        </mxCell>
        <mxCell id="wbJ-zIDXcwP3jqcFJ3KQ-27" style="edgeStyle=orthogonalEdgeStyle;rounded=0;orthogonalLoop=1;jettySize=auto;html=1;exitX=0.5;exitY=1;exitDx=0;exitDy=0;" edge="1" parent="WIyWlLk6GJQsqaUBKTNV-1" source="wbJ-zIDXcwP3jqcFJ3KQ-23">
          <mxGeometry relative="1" as="geometry">
            <mxPoint x="360" y="670" as="targetPoint" />
            <Array as="points">
              <mxPoint x="550" y="630" />
              <mxPoint x="361" y="630" />
            </Array>
          </mxGeometry>
        </mxCell>
        <mxCell id="wbJ-zIDXcwP3jqcFJ3KQ-23" value="Have they run out of lives?" style="whiteSpace=wrap;html=1;rounded=1;glass=0;strokeWidth=1;shadow=0;" vertex="1" parent="WIyWlLk6GJQsqaUBKTNV-1">
          <mxGeometry x="490" y="555" width="120" height="60" as="geometry" />
        </mxCell>
        <mxCell id="wbJ-zIDXcwP3jqcFJ3KQ-26" value="No" style="text;html=1;align=center;verticalAlign=middle;resizable=0;points=[];autosize=1;strokeColor=none;fillColor=none;" vertex="1" parent="WIyWlLk6GJQsqaUBKTNV-1">
          <mxGeometry x="630" y="468" width="40" height="30" as="geometry" />
        </mxCell>
        <mxCell id="wbJ-zIDXcwP3jqcFJ3KQ-28" value="Yes" style="text;html=1;align=center;verticalAlign=middle;resizable=0;points=[];autosize=1;strokeColor=none;fillColor=none;" vertex="1" parent="WIyWlLk6GJQsqaUBKTNV-1">
          <mxGeometry x="220" y="628" width="40" height="30" as="geometry" />
        </mxCell>
        <mxCell id="wbJ-zIDXcwP3jqcFJ3KQ-29" value="Yes" style="text;html=1;align=center;verticalAlign=middle;resizable=0;points=[];autosize=1;strokeColor=none;fillColor=none;" vertex="1" parent="WIyWlLk6GJQsqaUBKTNV-1">
          <mxGeometry x="510" y="628" width="40" height="30" as="geometry" />
        </mxCell>
        <mxCell id="wbJ-zIDXcwP3jqcFJ3KQ-31" value="Game Over" style="rounded=1;whiteSpace=wrap;html=1;" vertex="1" parent="WIyWlLk6GJQsqaUBKTNV-1">
          <mxGeometry x="300" y="680" width="120" height="60" as="geometry" />
        </mxCell>
      </root>
    </mxGraphModel>
  </diagram>
</mxfile>
